<svg width="55" height="128" viewBox="0 0 55 128" fill="none" xmlns="http://www.w3.org/2000/svg">
<path d="M49.6654 10.382C51.0647 11.5379 51.8508 13.1055 51.8508 14.74C51.8508 16.3745 51.0647 17.9421 49.6654 19.098L37.9459 28.782C35.2818 30.982 32.0147 33.66 27.9 33.758C23.5406 33.862 19.731 31.17 16.8368 28.782L5.10285 19.098C3.72446 17.933 2.95276 16.3688 2.95276 14.74C2.95276 13.1112 3.72446 11.547 5.10285 10.382C6.50333 9.22677 8.40185 8.57788 10.3813 8.57788C12.3608 8.57788 14.2593 9.22677 15.6598 10.382L19.915 13.896V6.16601C19.9647 4.54327 20.7677 2.99837 22.1579 1.85074C23.548 0.703111 25.4191 0.0405321 27.3841 8.12872e-06C28.3652 -0.00130824 29.337 0.157267 30.2437 0.466647C31.1505 0.776026 31.9744 1.23013 32.6682 1.80293C33.3621 2.37573 33.9122 3.05597 34.2872 3.80467C34.6621 4.55337 34.8544 5.35581 34.8532 6.16601V13.896L39.1108 10.382C40.5195 9.24041 42.4144 8.60085 44.3881 8.60085C46.3618 8.60085 48.2567 9.24041 49.6654 10.382Z" fill="#8BDF9E"/>
<path d="M49.6654 108.364C51.0438 109.529 51.8155 111.093 51.8155 112.722C51.8155 114.351 51.0438 115.915 49.6654 117.08C48.2656 118.236 46.3674 118.885 44.3881 118.885C42.4089 118.885 40.5106 118.236 39.1109 117.08L34.8532 113.564V121.294C34.8312 122.924 34.0372 124.483 32.6412 125.635C31.2452 126.788 29.3582 127.444 27.3841 127.462C26.4029 127.463 25.4311 127.304 24.5244 126.995C23.6176 126.685 22.7937 126.231 22.0999 125.658C21.4061 125.085 20.8559 124.404 20.481 123.656C20.1061 122.907 19.9138 122.104 19.9151 121.294V113.564L15.6647 117.08C14.2529 118.217 12.3586 118.854 10.3862 118.854C8.41381 118.854 6.51953 118.217 5.10774 117.08C3.70956 115.924 2.92426 114.356 2.92426 112.722C2.92426 111.088 3.70956 109.52 5.10774 108.364L16.8345 98.68C19.4625 96.3677 23.0268 94.9323 26.8513 94.646C31.049 94.7299 35.0366 96.1798 37.9459 98.68L49.6654 108.364Z" fill="#8BDF9E"/>
<path d="M44.812 28.782H9.95875C8.65106 28.7818 7.35612 28.9942 6.14788 29.4073C4.93965 29.8204 3.84178 30.426 2.917 31.1895C1.99221 31.953 1.25862 32.8595 0.758112 33.8571C0.257608 34.8548 2.55971e-07 35.9241 2.9466e-07 37.004V90.462C-0.000317888 91.5421 0.257055 92.6116 0.757417 93.6095C1.25778 94.6074 1.99132 95.5141 2.91614 96.2778C3.84096 97.0416 4.93893 97.6473 6.14733 98.0605C7.35572 98.4737 8.65086 98.6863 9.95875 98.686H44.812C46.1196 98.686 47.4145 98.4733 48.6226 98.06C49.8307 97.6466 50.9284 97.0408 51.853 96.2771C52.7776 95.5134 53.5109 94.6068 54.0111 93.609C54.5113 92.6113 54.7686 91.5419 54.7683 90.462V37.004C54.7686 35.9242 54.5113 34.8549 54.011 33.8573C53.5108 32.8596 52.7774 31.9531 51.8528 31.1896C50.9283 30.4261 49.8306 29.8204 48.6225 29.4073C47.4143 28.9942 46.1195 28.7818 44.812 28.782Z" fill="#FFBC5C"/>
<path d="M15.6792 90.462V37.004C15.6789 35.9242 15.9362 34.8549 16.4365 33.8573C16.9367 32.8596 17.6701 31.9531 18.5947 31.1896C19.5192 30.4261 20.6169 29.8204 21.825 29.4073C23.0331 28.9942 24.328 28.7818 25.6355 28.782H9.95875C8.65106 28.7818 7.35612 28.9942 6.14788 29.4073C4.93965 29.8204 3.84178 30.426 2.917 31.1895C1.99221 31.953 1.25862 32.8595 0.758112 33.8571C0.257608 34.8548 2.55971e-07 35.9241 2.9466e-07 37.004V90.462C-0.000317888 91.5421 0.257055 92.6116 0.757417 93.6095C1.25778 94.6074 1.99132 95.5141 2.91614 96.2778C3.84096 97.0416 4.93893 97.6473 6.14733 98.0605C7.35572 98.4737 8.65086 98.6863 9.95875 98.686H25.6355C24.3279 98.686 23.033 98.4733 21.8249 98.06C20.6167 97.6466 19.5191 97.0408 18.5945 96.2771C17.6699 95.5134 16.9366 94.6068 16.4364 93.609C15.9362 92.6113 15.6789 91.5419 15.6792 90.462Z" fill="#FCA956"/>
<path d="M54.7683 45.262V71.986C47.9241 71.986 47.9241 80.128 41.0774 80.128C34.2308 80.128 34.2308 71.986 27.3599 71.986C21.2616 71.986 20.5787 78.442 15.6841 79.84C15.0379 80.0351 14.3546 80.1327 13.6666 80.128C6.84664 80.128 6.84664 71.986 0 71.986V45.262C6.84664 45.262 6.84664 53.404 13.6666 53.404C14.3546 53.4087 15.0379 53.3111 15.6841 53.116C20.5884 51.716 21.2544 45.262 27.3599 45.262C34.2308 45.262 34.2308 53.404 41.0774 53.404C47.9241 53.404 47.9241 45.262 54.7683 45.262Z" fill="#8BDF9E"/>
<path d="M15.6841 53.114V79.84C15.0379 80.0351 14.3546 80.1327 13.6666 80.128C6.84664 80.128 6.84664 71.986 0 71.986V45.262C6.84664 45.262 6.84664 53.404 13.6666 53.404C14.3547 53.408 15.0381 53.3098 15.6841 53.114Z" fill="#72C485"/>
</svg>
