<svg width="55" height="128" viewBox="0 0 55 128" fill="none" xmlns="http://www.w3.org/2000/svg">
<path d="M49.2416 10.382C50.641 11.5379 51.4271 13.1055 51.4271 14.74C51.4271 16.3745 50.641 17.9421 49.2416 19.098L37.5149 28.782C34.8969 30.946 31.855 33.822 27.9073 34.336C23.0636 34.968 19.4477 31.294 16.4059 28.782L4.67915 19.098C3.30532 17.931 2.53674 16.3676 2.53674 14.74C2.53674 13.1124 3.30532 11.549 4.67915 10.382C6.0789 9.2264 7.97714 8.57722 9.95641 8.57722C11.9357 8.57722 13.8339 9.2264 15.2337 10.382L19.4865 13.896V6.16601C19.5092 4.53546 20.3041 2.97707 21.7011 1.82458C23.098 0.672098 24.9859 0.0171504 26.9604 5.19908e-06C27.9414 -0.00104729 28.913 0.157708 29.8196 0.467181C30.7262 0.776654 31.55 1.23077 32.2438 1.80352C32.9376 2.37627 33.4878 3.0564 33.8628 3.80498C34.2379 4.55356 34.4304 5.35588 34.4295 6.16601V13.896L38.6871 10.382C40.0958 9.2404 41.9907 8.60085 43.9644 8.60085C45.9381 8.60085 47.833 9.2404 49.2416 10.382Z" fill="#FCE2C0"/>
<path d="M49.2416 108.364C50.6211 109.529 51.3936 111.093 51.3936 112.722C51.3936 114.351 50.6211 115.915 49.2416 117.08C47.8418 118.236 45.9436 118.885 43.9643 118.885C41.985 118.885 40.0868 118.236 38.6871 117.08L34.4294 113.564V121.294C34.4025 122.923 33.6069 124.479 32.212 125.631C30.817 126.783 28.9329 127.44 26.9603 127.462C25.9787 127.464 25.0064 127.305 24.0991 126.996C23.1917 126.686 22.3673 126.232 21.6729 125.659C20.9786 125.086 20.428 124.406 20.0528 123.657C19.6776 122.907 19.4852 122.105 19.4864 121.294V113.564L15.2288 117.08C13.8213 118.204 11.9353 118.827 9.97729 118.813C8.01928 118.8 6.1461 118.151 4.76153 117.008C3.37697 115.865 2.59191 114.318 2.57558 112.701C2.55925 111.084 3.31296 109.526 4.67424 108.364L16.401 98.68C17.6935 97.4064 19.3083 96.3821 21.1318 95.6793C22.9553 94.9766 24.9432 94.6124 26.9555 94.6124C28.9678 94.6124 30.9557 94.9766 32.7792 95.6793C34.6027 96.3821 36.2175 97.4064 37.51 98.68L49.2416 108.364Z" fill="#FCE2C0"/>
<path d="M54.6448 60.4C53.9182 49.134 49.4402 39.328 42.8938 33.242C41.2522 31.6618 39.33 30.2963 37.1927 29.192C34.2805 27.6044 30.8736 26.7479 27.3841 26.726C23.5508 26.7585 19.8253 27.7786 16.7279 29.644C6.89266 35.262 2.96654e-06 48.394 2.96654e-06 63.73C-0.000867953 66.2594 0.190026 68.7863 0.571566 71.296C1.37826 76.9785 3.37451 82.502 6.47125 87.62C8.82988 91.6608 12.3514 95.1629 16.7279 97.82C19.825 99.6861 23.5505 100.707 27.3841 100.74C30.8738 100.717 34.2807 99.8602 37.1927 98.272C47.4736 92.968 54.7683 79.502 54.7683 63.734C54.7683 62.6 54.7441 61.49 54.6448 60.4Z" fill="#EE6161"/>
<path d="M30.9249 97.816C26.5484 95.1589 23.0269 91.6568 20.6683 87.616C17.5696 82.4984 15.5725 76.9748 14.7662 71.292C14.3846 68.7823 14.1937 66.2554 14.1946 63.726C14.1946 48.39 21.0897 35.254 30.9249 29.64C32.0498 28.9996 33.2498 28.4542 34.5069 28.012C32.2693 27.1723 29.8419 26.7327 27.3841 26.722C23.5508 26.7545 19.8253 27.7747 16.7279 29.64C6.89266 35.262 2.96654e-06 48.394 2.96654e-06 63.73C-0.000867953 66.2594 0.190026 68.7863 0.571566 71.296C1.37826 76.9785 3.37451 82.502 6.47125 87.62C8.82988 91.6608 12.3514 95.1629 16.7279 97.82C19.825 99.6861 23.5505 100.707 27.3841 100.74C29.8418 100.729 32.269 100.289 34.5069 99.45C33.2496 99.0059 32.0496 98.4584 30.9249 97.816Z" fill="#DE5454"/>
<path d="M54.6448 60.392C54.2331 61.8878 53.2672 63.2405 51.8814 64.262C45.1002 69.526 37.5415 62.862 30.7433 68.128C23.9451 73.394 31.5159 80.052 24.7443 85.314C23.5524 86.2697 22.0708 86.9426 20.4552 87.262C15.8246 88.146 11.0099 86.048 6.46402 87.61C3.36695 82.4928 1.37067 76.9699 0.564331 71.288C2.28006 71.655 4.07739 71.6765 5.80528 71.3508C7.53317 71.025 9.14113 70.3615 10.494 69.416C16.6432 64.816 11.3925 58.912 15.1246 54.038C15.6129 53.4029 16.2082 52.8284 16.8926 52.332C23.7901 47.172 31.2083 53.932 38.1034 48.776C44.3518 44.108 38.876 38.146 42.8842 33.234C49.4402 39.318 53.9207 49.126 54.6448 60.392Z" fill="#FCE2C0"/>
<path d="M20.4552 87.262C15.8246 88.146 11.0099 86.048 6.46402 87.61C3.36695 82.4928 1.37067 76.9699 0.564331 71.288C2.28006 71.655 4.07739 71.6765 5.80528 71.3508C7.53317 71.025 9.14113 70.3615 10.494 69.416C16.6432 64.816 11.3925 58.912 15.1246 54.038C14.488 57.2391 14.1721 60.4781 14.1801 63.722C14.1793 66.2514 14.3702 68.7783 14.7517 71.288C15.5398 76.8416 17.4686 82.2437 20.4552 87.262Z" fill="#F2CA9D"/>
</svg>
